<svg id="visual" viewBox="0 0 960 540" width="960" height="540" xmlns="http://www.w3.org/2000/svg" xmlns:xlink="http://www.w3.org/1999/xlink" version="1.1"><rect x="0" y="0" width="960" height="540" fill="#fff"></rect><defs><linearGradient id="grad1_0" x1="43.8%" y1="100%" x2="100%" y2="0%"><stop offset="14.444444444444446%" stop-color="#ffffff" stop-opacity="1"></stop><stop offset="85.55555555555554%" stop-color="#ffffff" stop-opacity="1"></stop></linearGradient></defs><defs><linearGradient id="grad2_0" x1="0%" y1="100%" x2="56.3%" y2="0%"><stop offset="14.444444444444446%" stop-color="#ffffff" stop-opacity="1"></stop><stop offset="85.55555555555554%" stop-color="#ffffff" stop-opacity="1"></stop></linearGradient></defs><g transform="translate(960, 540)"><path d="M-324 0C-288.4 -28.6 -252.8 -57.2 -243 -100.6C-233.2 -144.1 -249.3 -202.4 -229.1 -229.1C-208.9 -255.8 -152.5 -250.9 -108.3 -261.5C-64.1 -272 -32 -298 0 -324L0 0Z" fill="#50c8ff"></path></g><g transform="translate(0, 0)"><path d="M324 0C307.6 36.4 291.2 72.8 279 115.6C266.8 158.4 258.9 207.5 229.1 229.1C199.4 250.7 147.8 244.7 106 255.9C64.2 267.1 32.1 295.6 0 324L0 0Z" fill="#50c8ff"></path></g></svg>