<svg id="visual" viewBox="0 0 540 960" width="540" height="960" xmlns="http://www.w3.org/2000/svg" xmlns:xlink="http://www.w3.org/1999/xlink" version="1.1"><rect x="0" y="0" width="540" height="960" fill="#fff"></rect><path d="M0 652L12.8 641.8C25.7 631.7 51.3 611.3 77 614.2C102.7 617 128.3 643 154 660.5C179.7 678 205.3 687 231.2 691.8C257 696.7 283 697.3 308.8 686.2C334.7 675 360.3 652 386 646.8C411.7 641.7 437.3 654.3 463 654.8C488.7 655.3 514.3 643.7 527.2 637.8L540 632L540 961L527.2 961C514.3 961 488.7 961 463 961C437.3 961 411.7 961 386 961C360.3 961 334.7 961 308.8 961C283 961 257 961 231.2 961C205.3 961 179.7 961 154 961C128.3 961 102.7 961 77 961C51.3 961 25.7 961 12.8 961L0 961Z" fill="#50c8ff"></path><path d="M0 718L12.8 716C25.7 714 51.3 710 77 710.2C102.7 710.3 128.3 714.7 154 705.2C179.7 695.7 205.3 672.3 231.2 658C257 643.7 283 638.3 308.8 642C334.7 645.7 360.3 658.3 386 680.7C411.7 703 437.3 735 463 734C488.7 733 514.3 699 527.2 682L540 665L540 961L527.2 961C514.3 961 488.7 961 463 961C437.3 961 411.7 961 386 961C360.3 961 334.7 961 308.8 961C283 961 257 961 231.2 961C205.3 961 179.7 961 154 961C128.3 961 102.7 961 77 961C51.3 961 25.7 961 12.8 961L0 961Z" fill="#24b5ff"></path><path d="M0 747L12.8 752C25.7 757 51.3 767 77 768.2C102.7 769.3 128.3 761.7 154 755.7C179.7 749.7 205.3 745.3 231.2 738.2C257 731 283 721 308.8 727.5C334.7 734 360.3 757 386 768.3C411.7 779.7 437.3 779.3 463 771.5C488.7 763.7 514.3 748.3 527.2 740.7L540 733L540 961L527.2 961C514.3 961 488.7 961 463 961C437.3 961 411.7 961 386 961C360.3 961 334.7 961 308.8 961C283 961 257 961 231.2 961C205.3 961 179.7 961 154 961C128.3 961 102.7 961 77 961C51.3 961 25.7 961 12.8 961L0 961Z" fill="#00a0ff"></path><path d="M0 835L12.8 831.3C25.7 827.7 51.3 820.3 77 812C102.7 803.7 128.3 794.3 154 800.2C179.7 806 205.3 827 231.2 838.5C257 850 283 852 308.8 841.8C334.7 831.7 360.3 809.3 386 797.2C411.7 785 437.3 783 463 786.7C488.7 790.3 514.3 799.7 527.2 804.3L540 809L540 961L527.2 961C514.3 961 488.7 961 463 961C437.3 961 411.7 961 386 961C360.3 961 334.7 961 308.8 961C283 961 257 961 231.2 961C205.3 961 179.7 961 154 961C128.3 961 102.7 961 77 961C51.3 961 25.7 961 12.8 961L0 961Z" fill="#0089ff"></path><path d="M0 918L12.8 908.8C25.7 899.7 51.3 881.3 77 873.7C102.7 866 128.3 869 154 877.3C179.7 885.7 205.3 899.3 231.2 899.5C257 899.7 283 886.3 308.8 880.7C334.7 875 360.3 877 386 871.3C411.7 865.7 437.3 852.3 463 852.3C488.7 852.3 514.3 865.7 527.2 872.3L540 879L540 961L527.2 961C514.3 961 488.7 961 463 961C437.3 961 411.7 961 386 961C360.3 961 334.7 961 308.8 961C283 961 257 961 231.2 961C205.3 961 179.7 961 154 961C128.3 961 102.7 961 77 961C51.3 961 25.7 961 12.8 961L0 961Z" fill="#306eff"></path></svg>