<?xml version="1.0" encoding="utf-8"?><!-- Uploaded to: SVG Repo, www.svgrepo.com, Generator: SVG Repo Mixer Tools -->

<svg xmlns="http://www.w3.org/2000/svg" width="14" height="14" viewBox="0 0 20 20">
    <path d="M9 3.5C7.4178 3.5 5.87103 3.96919 4.55544 4.84824C3.23985 5.72729 2.21447 6.97672 1.60897 8.43853C1.00347 9.9003 0.84504 11.5089 1.15372 13.0607C1.4624 14.6126 2.22433 16.038 3.34315 17.1569C4.46197 18.2757 5.88743 19.0376 7.4393 19.3463C8.9911 19.655 10.5997 19.4965 12.0615 18.891C13.5233 18.2855 14.7727 17.2602 15.6518 15.9446C16.5308 14.629 17 13.0823 17 11.5C17 9.37827 16.1571 7.34344 14.6569 5.84315C13.1566 4.34285 11.1217 3.5 9 3.5ZM12.93 8.98L11.62 15.17C11.52 15.61 11.26 15.71 10.89 15.51L8.89 14.03L7.89 14.96C7.8429 15.0215 7.7824 15.0715 7.7131 15.1062C7.6438 15.1408 7.5675 15.1592 7.49 15.16L7.63 13.16L11.33 9.81C11.5 9.67 11.33 9.59 11.09 9.73L6.55 12.58L4.55 11.96C4.12 11.83 4.11 11.53 4.64 11.33L12.35 8.33C12.73 8.22 13.05 8.44 12.93 8.98Z"></path>
</svg>